STARTFONT 2.1
COMMENT CVS:Version $Id 1.5
COMMENT
COMMENT (C) CENA/J.L. Vinot, 2002, CENA (Centre d'Etudes de la Navigation Aťrienne)
COMMENT This software is free software; you can redistribute it and/or modify it 
COMMENT under the terms of the GNU Lesser General Public License as published by the Free Software Foundation: 
COMMENT either version 2 of the License, or (at your option) any later version.
COMMENT 
COMMENT This software is distributed in the hope that it will be useful, but WITHOUT ANY WARRANTY; 
COMMENT without even the implied warranty of MERCHANTABILITY or FITNESS FOR A PARTICULAR PURPOSE.  
COMMENT See the GNU Lesser General Public License for more details.
COMMENT 
COMMENT You should have received a copy of the GNU Lesser General Public License along with this software; 
COMMENT if not, write to the Free Software Foundation, Inc., 59 Temple Place - Suite 330, Boston, MA  02111-1307, USA.
COMMENT Please refer to http://www.gnu.org/copyleft/gpl.html
COMMENT 
COMMENT This font has been originally designed by CENA/France for the specific needs of Air Traffic Control. 
COMMENT For example, it must offer good legibility and avoid any confusion between character shapes. 
COMMENT CENA would like to preserve its qualities. If you have any specific need, you can modify this font, 
COMMENT but we would like you to change its name to avoid any confusion between your new font and the original one designed by CENA.
COMMENT Note however, that as implied in the LGPL licence, you must credit CENA for the original work. 
COMMENT Finally, CENA would appreciate it if you send back any enhancement or extension made to the original work. 
COMMENT This statement must be fully included with any further distribution of the font.
COMMENT 
COMMENT to contact us: email to:  pii-contact@cena.fr
COMMENT write to: CENA, 7 avenue Edouard Belin, 31400 Toulouse, France 
FONT -CenaPii-Bleriot Radar-SemiBold-R-Normal--15-150-75-75-P-91-ISO8859-15
SIZE 15 72 72

STARTCHAR gcid14
ENCODING 20
SWIDTH 666 0
DWIDTH 10 0
BBX 8 2 1 5
BITMAP
FF
FF
ENDCHAR
STARTCHAR gcid15
ENCODING 21
SWIDTH 733 0
DWIDTH 11 0
BBX 9 9 1 2
BITMAP
C000
E000
7000
3880
1D80
0F80
0780
0F80
1F80
ENDCHAR
STARTCHAR gcid16
ENCODING 22
SWIDTH 733 0
DWIDTH 11 0
BBX 9 9 1 0
BITMAP
1F80
0F80
0780
0F80
1D80
3880
7000
E000
C000
ENDCHAR
STARTCHAR space
ENCODING 32
SWIDTH 666 0
DWIDTH 10 0
BBX 0 0 0 0
BITMAP
ENDCHAR
STARTCHAR exclam
ENCODING 33
SWIDTH 466 0
DWIDTH 7 0
BBX 2 11 2 0
BITMAP
C0
C0
C0
C0
C0
C0
C0
C0
00
C0
C0
ENDCHAR
STARTCHAR quotedbl
ENCODING 34
SWIDTH 466 0
DWIDTH 7 0
BBX 5 4 1 7
BITMAP
D8
D8
D8
D8
ENDCHAR
STARTCHAR numbersign
ENCODING 35
SWIDTH 733 0
DWIDTH 11 0
BBX 10 9 1 1
BITMAP
1980
1980
7FC0
3300
3300
3300
FF80
6600
6600
ENDCHAR
STARTCHAR dollar
ENCODING 36
SWIDTH 600 0
DWIDTH 9 0
BBX 7 15 1 -2
BITMAP
10
10
7C
DC
D0
F0
78
3C
1E
D6
D6
7C
38
10
10
ENDCHAR
STARTCHAR percent
ENCODING 37
SWIDTH 933 0
DWIDTH 14 0
BBX 12 11 1 0
BITMAP
7180
D980
DB00
DB00
7600
0600
0CE0
0DB0
19B0
19B0
30E0
ENDCHAR
STARTCHAR ampersand
ENCODING 38
SWIDTH 800 0
DWIDTH 12 0
BBX 10 11 1 0
BITMAP
3C00
6E00
6600
6C00
3800
7800
DCC0
CF80
C700
EF80
79C0
ENDCHAR
STARTCHAR quotesingle
ENCODING 39
SWIDTH 266 0
DWIDTH 4 0
BBX 2 4 1 7
BITMAP
C0
C0
C0
C0
ENDCHAR
STARTCHAR parenleft
ENCODING 40
SWIDTH 533 0
DWIDTH 8 0
BBX 4 15 3 -3
BITMAP
10
20
60
40
C0
C0
C0
C0
C0
C0
C0
40
60
20
10
ENDCHAR
STARTCHAR parenright
ENCODING 41
SWIDTH 533 0
DWIDTH 8 0
BBX 4 15 1 -3
BITMAP
80
40
60
20
30
30
30
30
30
30
30
20
60
40
80
ENDCHAR
STARTCHAR asterisk
ENCODING 42
SWIDTH 600 0
DWIDTH 9 0
BBX 7 7 1 4
BITMAP
10
D6
7C
38
7C
D6
10
ENDCHAR
STARTCHAR plus
ENCODING 43
SWIDTH 666 0
DWIDTH 10 0
BBX 8 7 2 0
BITMAP
18
18
18
FF
18
18
18
ENDCHAR
STARTCHAR comma
ENCODING 44
SWIDTH 266 0
DWIDTH 4 0
BBX 3 4 1 -2
BITMAP
60
60
C0
80
ENDCHAR
STARTCHAR hyphen
ENCODING 45
SWIDTH 533 0
DWIDTH 8 0
BBX 5 2 1 2
BITMAP
F8
F8
ENDCHAR
STARTCHAR period
ENCODING 46
SWIDTH 266 0
DWIDTH 4 0
BBX 2 2 1 0
BITMAP
C0
C0
ENDCHAR
STARTCHAR slash
ENCODING 47
SWIDTH 666 0
DWIDTH 10 0
BBX 8 13 1 -2
BITMAP
03
03
06
06
0C
0C
18
18
30
30
60
60
C0
ENDCHAR
STARTCHAR zero
ENCODING 48
SWIDTH 733 0
DWIDTH 11 0
BBX 9 11 2 0
BITMAP
1C00
7F00
6300
C580
CD80
C980
D980
D180
6300
7F00
1C00
ENDCHAR
STARTCHAR one
ENCODING 49
SWIDTH 600 0
DWIDTH 9 0
BBX 5 11 2 0
BITMAP
18
38
78
D8
98
18
18
18
18
18
18
ENDCHAR
STARTCHAR two
ENCODING 50
SWIDTH 666 0
DWIDTH 10 0
BBX 8 11 2 0
BITMAP
3C
7E
C6
C6
06
0C
1C
30
60
FE
FF
ENDCHAR
STARTCHAR three
ENCODING 51
SWIDTH 666 0
DWIDTH 10 0
BBX 8 11 1 0
BITMAP
7E
FE
0C
18
3C
1E
07
03
C3
FE
7C
ENDCHAR
STARTCHAR four
ENCODING 52
SWIDTH 666 0
DWIDTH 10 0
BBX 9 11 1 0
BITMAP
0C00
1800
1800
3000
3200
6600
6600
FF80
FF00
0600
0600
ENDCHAR
STARTCHAR five
ENCODING 53
SWIDTH 666 0
DWIDTH 10 0
BBX 8 11 1 0
BITMAP
7E
7E
60
7C
7E
47
03
03
43
FE
7C
ENDCHAR
STARTCHAR six
ENCODING 54
SWIDTH 666 0
DWIDTH 10 0
BBX 8 11 2 0
BITMAP
0C
18
30
68
7E
F7
C3
C3
C3
7E
3C
ENDCHAR
STARTCHAR seven
ENCODING 55
SWIDTH 600 0
DWIDTH 9 0
BBX 9 11 1 0
BITMAP
7F80
FF00
0300
0600
0C00
0C00
1800
1800
3000
3000
3000
ENDCHAR
STARTCHAR eight
ENCODING 56
SWIDTH 666 0
DWIDTH 10 0
BBX 9 11 1 0
BITMAP
1E00
3700
6300
7300
3E00
7F00
6380
C180
E180
7F00
3E00
ENDCHAR
STARTCHAR nine
ENCODING 57
SWIDTH 666 0
DWIDTH 10 0
BBX 8 11 2 0
BITMAP
3C
7E
C3
C3
C3
EF
7E
16
0C
18
30
ENDCHAR
STARTCHAR colon
ENCODING 58
SWIDTH 333 0
DWIDTH 5 0
BBX 2 7 2 0
BITMAP
C0
C0
00
00
00
C0
C0
ENDCHAR
STARTCHAR semicolon
ENCODING 59
SWIDTH 333 0
DWIDTH 5 0
BBX 3 9 1 -2
BITMAP
60
60
00
00
00
60
60
C0
80
ENDCHAR
STARTCHAR less
ENCODING 60
SWIDTH 533 0
DWIDTH 8 0
BBX 6 9 1 0
BITMAP
0C
18
30
60
C0
60
30
18
0C
ENDCHAR
STARTCHAR equal
ENCODING 61
SWIDTH 533 0
DWIDTH 8 0
BBX 7 4 1 2
BITMAP
FE
00
00
FE
ENDCHAR
STARTCHAR greater
ENCODING 62
SWIDTH 533 0
DWIDTH 8 0
BBX 6 9 1 0
BITMAP
C0
60
30
18
0C
18
30
60
C0
ENDCHAR
STARTCHAR question
ENCODING 63
SWIDTH 666 0
DWIDTH 10 0
BBX 7 11 1 0
BITMAP
3C
EE
C6
06
0C
18
30
30
00
30
30
ENDCHAR
STARTCHAR at
ENCODING 64
SWIDTH 1066 0
DWIDTH 16 0
BBX 14 14 1 -2
BITMAP
07C0
1EF0
3838
6018
67CC
CFCC
D8C4
98CC
D9CC
DFF8
CF70
6000
7BC0
1F80
ENDCHAR
STARTCHAR A
ENCODING 65
SWIDTH 733 0
DWIDTH 11 0
BBX 10 11 1 0
BITMAP
0800
0C00
1C00
1E00
3600
3300
6300
7F80
7F80
C0C0
C0C0
ENDCHAR
STARTCHAR B
ENCODING 66
SWIDTH 666 0
DWIDTH 10 0
BBX 8 11 2 0
BITMAP
FC
FE
C6
C6
FC
FE
C7
C3
C3
FE
FC
ENDCHAR
STARTCHAR C
ENCODING 67
SWIDTH 666 0
DWIDTH 10 0
BBX 8 11 2 0
BITMAP
1E
7F
62
C0
C0
C0
C0
C0
62
7F
1E
ENDCHAR
STARTCHAR D
ENCODING 68
SWIDTH 666 0
DWIDTH 10 0
BBX 8 11 2 0
BITMAP
F8
FE
C6
C3
C3
C3
C3
C3
C6
FE
F8
ENDCHAR
STARTCHAR E
ENCODING 69
SWIDTH 600 0
DWIDTH 9 0
BBX 7 11 2 0
BITMAP
FC
FC
C0
C0
F8
F8
C0
C0
C0
FE
FE
ENDCHAR
STARTCHAR F
ENCODING 70
SWIDTH 533 0
DWIDTH 8 0
BBX 6 11 2 0
BITMAP
FC
FC
C0
C0
F8
F8
C0
C0
C0
C0
C0
ENDCHAR
STARTCHAR G
ENCODING 71
SWIDTH 733 0
DWIDTH 11 0
BBX 9 11 2 0
BITMAP
1E00
7F80
6100
C000
C000
CF80
CF80
C180
6180
7F80
1F80
ENDCHAR
STARTCHAR H
ENCODING 72
SWIDTH 666 0
DWIDTH 10 0
BBX 8 11 2 0
BITMAP
C3
C3
C3
C3
FF
FF
C3
C3
C3
C3
C3
ENDCHAR
STARTCHAR I
ENCODING 73
SWIDTH 400 0
DWIDTH 6 0
BBX 2 11 3 0
BITMAP
C0
C0
C0
C0
C0
C0
C0
C0
C0
C0
C0
ENDCHAR
STARTCHAR J
ENCODING 74
SWIDTH 533 0
DWIDTH 8 0
BBX 6 11 1 0
BITMAP
0C
0C
0C
0C
0C
0C
0C
0C
4C
FC
78
ENDCHAR
STARTCHAR K
ENCODING 75
SWIDTH 666 0
DWIDTH 10 0
BBX 8 11 2 0
BITMAP
C3
C6
CC
D8
F0
F0
F8
DC
CE
C7
C3
ENDCHAR
STARTCHAR L
ENCODING 76
SWIDTH 600 0
DWIDTH 9 0
BBX 6 11 3 0
BITMAP
C0
C0
C0
C0
C0
C0
C0
C0
C0
FC
FC
ENDCHAR
STARTCHAR M
ENCODING 77
SWIDTH 866 0
DWIDTH 13 0
BBX 11 11 2 0
BITMAP
C060
C060
E0E0
E0E0
F1E0
F1E0
DB60
DB60
CE60
CE60
C460
ENDCHAR
STARTCHAR N
ENCODING 78
SWIDTH 666 0
DWIDTH 10 0
BBX 8 11 2 0
BITMAP
C3
E3
E3
F3
F3
DB
DF
CF
C7
C7
C3
ENDCHAR
STARTCHAR O
ENCODING 79
SWIDTH 800 0
DWIDTH 12 0
BBX 10 11 2 0
BITMAP
1E00
7F80
6180
C0C0
C0C0
C0C0
C0C0
C0C0
6180
7F80
1E00
ENDCHAR
STARTCHAR P
ENCODING 80
SWIDTH 600 0
DWIDTH 9 0
BBX 7 11 2 0
BITMAP
F8
FC
C6
C6
C6
C6
FC
F8
C0
C0
C0
ENDCHAR
STARTCHAR Q
ENCODING 81
SWIDTH 800 0
DWIDTH 12 0
BBX 11 12 2 -1
BITMAP
1E00
7F80
6180
C0C0
C0C0
DCC0
EEC0
C7C0
6380
7FC0
1EE0
0040
ENDCHAR
STARTCHAR R
ENCODING 82
SWIDTH 666 0
DWIDTH 10 0
BBX 8 11 2 0
BITMAP
F8
FE
C6
C6
CE
FC
F8
DC
CE
C7
C3
ENDCHAR
STARTCHAR S
ENCODING 83
SWIDTH 600 0
DWIDTH 9 0
BBX 8 11 1 0
BITMAP
3C
3E
66
60
78
3E
0F
43
E3
7E
3C
ENDCHAR
STARTCHAR T
ENCODING 84
SWIDTH 600 0
DWIDTH 9 0
BBX 8 11 1 0
BITMAP
FF
FF
18
18
18
18
18
18
18
18
18
ENDCHAR
STARTCHAR U
ENCODING 85
SWIDTH 666 0
DWIDTH 10 0
BBX 8 11 2 0
BITMAP
C3
C3
C3
C3
C3
C3
C3
C3
C3
7E
3C
ENDCHAR
STARTCHAR V
ENCODING 86
SWIDTH 666 0
DWIDTH 10 0
BBX 9 11 1 0
BITMAP
C180
C180
4180
6300
6300
3300
3600
3600
1E00
1C00
0C00
ENDCHAR
STARTCHAR W
ENCODING 87
SWIDTH 933 0
DWIDTH 14 0
BBX 13 11 1 0
BITMAP
C218
C218
C718
6730
6730
6DB0
3DE0
39E0
38E0
18C0
1040
ENDCHAR
STARTCHAR X
ENCODING 88
SWIDTH 666 0
DWIDTH 10 0
BBX 8 11 2 0
BITMAP
C3
E3
66
3E
3C
18
3C
7E
66
C7
C3
ENDCHAR
STARTCHAR Y
ENCODING 89
SWIDTH 666 0
DWIDTH 10 0
BBX 9 11 1 0
BITMAP
E180
6180
7300
3300
1E00
1E00
0C00
0C00
0C00
0C00
0C00
ENDCHAR
STARTCHAR Z
ENCODING 90
SWIDTH 733 0
DWIDTH 11 0
BBX 9 11 2 0
BITMAP
7F00
FE00
0600
0C00
1C00
1800
3000
6000
6000
FF80
FF00
ENDCHAR
STARTCHAR bracketleft
ENCODING 91
SWIDTH 533 0
DWIDTH 8 0
BBX 3 15 3 -3
BITMAP
E0
C0
C0
C0
C0
C0
C0
C0
C0
C0
C0
C0
C0
C0
E0
ENDCHAR
STARTCHAR backslash
ENCODING 92
SWIDTH 666 0
DWIDTH 10 0
BBX 8 13 1 -2
BITMAP
C0
C0
60
60
30
30
18
18
0C
0C
06
06
03
ENDCHAR
STARTCHAR bracketright
ENCODING 93
SWIDTH 533 0
DWIDTH 8 0
BBX 3 15 2 -3
BITMAP
E0
60
60
60
60
60
60
60
60
60
60
60
60
60
E0
ENDCHAR
STARTCHAR asciicircum
ENCODING 94
SWIDTH 733 0
DWIDTH 11 0
BBX 7 3 2 8
BITMAP
38
6C
C6
ENDCHAR
STARTCHAR underscore
ENCODING 95
SWIDTH 666 0
DWIDTH 10 0
BBX 10 1 0 -3
BITMAP
FFC0
ENDCHAR
STARTCHAR a
ENCODING 97
SWIDTH 533 0
DWIDTH 8 0
BBX 7 8 1 0
BITMAP
7C
66
0E
7E
E6
C6
FE
76
ENDCHAR
STARTCHAR b
ENCODING 98
SWIDTH 600 0
DWIDTH 9 0
BBX 7 11 2 0
BITMAP
C0
C0
C0
DC
FE
E6
C6
C6
C6
FC
F8
ENDCHAR
STARTCHAR c
ENCODING 99
SWIDTH 533 0
DWIDTH 8 0
BBX 6 8 2 0
BITMAP
38
7C
C0
C0
C0
C0
FC
38
ENDCHAR
STARTCHAR d
ENCODING 100
SWIDTH 600 0
DWIDTH 9 0
BBX 7 11 2 0
BITMAP
06
06
06
76
FE
CE
C6
C6
C6
7E
3E
ENDCHAR
STARTCHAR e
ENCODING 101
SWIDTH 600 0
DWIDTH 9 0
BBX 7 8 2 0
BITMAP
3C
7E
C6
DE
F8
E0
7E
3C
ENDCHAR
STARTCHAR f
ENCODING 102
SWIDTH 533 0
DWIDTH 8 0
BBX 7 11 1 0
BITMAP
1E
36
30
7E
FC
30
30
30
30
30
30
ENDCHAR
STARTCHAR g
ENCODING 103
SWIDTH 600 0
DWIDTH 9 0
BBX 7 11 2 -3
BITMAP
3E
7E
C6
C6
C6
CE
FE
76
06
7C
78
ENDCHAR
STARTCHAR h
ENCODING 104
SWIDTH 600 0
DWIDTH 9 0
BBX 7 11 2 0
BITMAP
C0
C0
C0
DC
FE
E6
C6
C6
C6
C6
C6
ENDCHAR
STARTCHAR i
ENCODING 105
SWIDTH 400 0
DWIDTH 6 0
BBX 2 11 3 0
BITMAP
C0
C0
00
40
C0
C0
C0
C0
C0
C0
C0
ENDCHAR
STARTCHAR j
ENCODING 106
SWIDTH 400 0
DWIDTH 6 0
BBX 5 14 0 -3
BITMAP
18
18
00
08
18
18
18
18
18
18
18
18
F0
60
ENDCHAR
STARTCHAR k
ENCODING 107
SWIDTH 600 0
DWIDTH 9 0
BBX 7 11 2 0
BITMAP
C0
C0
C0
C6
CC
F8
F0
D8
DC
C6
C6
ENDCHAR
STARTCHAR l
ENCODING 108
SWIDTH 400 0
DWIDTH 6 0
BBX 4 11 2 0
BITMAP
C0
C0
C0
C0
C0
C0
C0
C0
C0
F0
70
ENDCHAR
STARTCHAR m
ENCODING 109
SWIDTH 800 0
DWIDTH 12 0
BBX 10 8 2 0
BITMAP
D980
FFC0
CCC0
CCC0
CCC0
CCC0
CCC0
CCC0
ENDCHAR
STARTCHAR n
ENCODING 110
SWIDTH 600 0
DWIDTH 9 0
BBX 7 8 2 0
BITMAP
DC
FE
C6
C6
C6
C6
C6
C6
ENDCHAR
STARTCHAR o
ENCODING 111
SWIDTH 600 0
DWIDTH 9 0
BBX 7 8 2 0
BITMAP
38
7C
C6
C6
C6
C6
7C
38
ENDCHAR
STARTCHAR p
ENCODING 112
SWIDTH 600 0
DWIDTH 9 0
BBX 7 11 2 -3
BITMAP
F8
FC
C6
C6
C6
CE
FC
F8
C0
C0
C0
ENDCHAR
STARTCHAR q
ENCODING 113
SWIDTH 600 0
DWIDTH 9 0
BBX 7 11 2 -3
BITMAP
3E
7E
C6
C6
C6
E6
7E
3E
06
06
06
ENDCHAR
STARTCHAR r
ENCODING 114
SWIDTH 466 0
DWIDTH 7 0
BBX 5 8 2 0
BITMAP
D8
F8
E0
C0
C0
C0
C0
C0
ENDCHAR
STARTCHAR s
ENCODING 115
SWIDTH 533 0
DWIDTH 8 0
BBX 6 8 1 0
BITMAP
38
6C
60
78
1C
0C
EC
78
ENDCHAR
STARTCHAR t
ENCODING 116
SWIDTH 533 0
DWIDTH 8 0
BBX 7 11 1 0
BITMAP
10
30
30
7E
FC
30
30
30
30
3E
1C
ENDCHAR
STARTCHAR u
ENCODING 117
SWIDTH 600 0
DWIDTH 9 0
BBX 7 8 2 0
BITMAP
C6
C6
C6
C6
C6
C6
FE
76
ENDCHAR
STARTCHAR v
ENCODING 118
SWIDTH 600 0
DWIDTH 9 0
BBX 8 8 1 0
BITMAP
C3
C3
66
66
3C
3C
18
18
ENDCHAR
STARTCHAR w
ENCODING 119
SWIDTH 800 0
DWIDTH 12 0
BBX 11 8 1 0
BITMAP
C460
C460
CE60
6EC0
6AC0
7BC0
3180
3180
ENDCHAR
STARTCHAR x
ENCODING 120
SWIDTH 533 0
DWIDTH 8 0
BBX 7 8 1 0
BITMAP
C6
E6
6C
38
38
6C
EE
C6
ENDCHAR
STARTCHAR y
ENCODING 121
SWIDTH 600 0
DWIDTH 9 0
BBX 8 11 1 -3
BITMAP
C3
C3
63
66
36
3C
1C
18
18
30
60
ENDCHAR
STARTCHAR z
ENCODING 122
SWIDTH 600 0
DWIDTH 9 0
BBX 8 8 1 0
BITMAP
7E
FE
0C
18
30
60
FF
FE
ENDCHAR
STARTCHAR braceleft
ENCODING 123
SWIDTH 533 0
DWIDTH 8 0
BBX 6 15 1 -3
BITMAP
1C
30
30
30
30
30
30
C0
30
30
30
30
30
30
1C
ENDCHAR
STARTCHAR bar
ENCODING 124
SWIDTH 600 0
DWIDTH 9 0
BBX 2 16 3 -3
BITMAP
C0
C0
C0
C0
C0
C0
C0
C0
C0
C0
C0
C0
C0
C0
C0
C0
ENDCHAR
STARTCHAR braceright
ENCODING 125
SWIDTH 533 0
DWIDTH 8 0
BBX 6 15 1 -3
BITMAP
E0
30
30
30
30
30
30
0C
30
30
30
30
30
30
E0
ENDCHAR
STARTCHAR Euro
ENCODING 164
SWIDTH 733 0
DWIDTH 11 0
BBX 9 11 1 0
BITMAP
0E00
3F00
3180
6080
FF00
6000
FC00
6000
3080
3F00
0E00
ENDCHAR
STARTCHAR degree
ENCODING 176
SWIDTH 466 0
DWIDTH 7 0
BBX 5 5 1 6
BITMAP
70
D8
88
D8
70
ENDCHAR
STARTCHAR Agrave
ENCODING 192
SWIDTH 733 0
DWIDTH 11 0
BBX 10 14 1 0
BITMAP
3000
1800
0000
0800
0C00
1C00
1E00
3600
3300
6300
7F80
7F80
C0C0
C0C0
ENDCHAR
STARTCHAR Acircumflex
ENCODING 194
SWIDTH 733 0
DWIDTH 11 0
BBX 10 14 1 0
BITMAP
1C00
3600
0000
0800
0C00
1C00
1E00
3600
3300
6300
7F80
7F80
C0C0
C0C0
ENDCHAR
STARTCHAR Ccedilla
ENCODING 199
SWIDTH 600 0
DWIDTH 9 0
BBX 7 14 2 -3
BITMAP
1E
7E
60
C0
C0
C0
C0
C0
60
7E
1E
0C
0C
38
ENDCHAR
STARTCHAR Egrave
ENCODING 200
SWIDTH 600 0
DWIDTH 9 0
BBX 7 14 2 0
BITMAP
60
30
00
FC
FC
C0
C0
F8
F8
C0
C0
C0
FE
FE
ENDCHAR
STARTCHAR Eacute
ENCODING 201
SWIDTH 600 0
DWIDTH 9 0
BBX 7 14 2 0
BITMAP
18
30
00
FC
FC
C0
C0
F8
F8
C0
C0
C0
FE
FE
ENDCHAR
STARTCHAR Ecircumflex
ENCODING 202
SWIDTH 600 0
DWIDTH 9 0
BBX 7 14 2 0
BITMAP
70
D8
00
FC
FC
C0
C0
F8
F8
C0
C0
C0
FE
FE
ENDCHAR
STARTCHAR Edieresis
ENCODING 203
SWIDTH 600 0
DWIDTH 9 0
BBX 7 14 2 0
BITMAP
D8
48
00
FC
FC
C0
C0
F8
F8
C0
C0
C0
FE
FE
ENDCHAR
STARTCHAR Icircumflex
ENCODING 206
SWIDTH 400 0
DWIDTH 6 0
BBX 5 14 1 0
BITMAP
70
D8
00
60
60
60
60
60
60
60
60
60
60
60
ENDCHAR
STARTCHAR Idieresis
ENCODING 207
SWIDTH 400 0
DWIDTH 6 0
BBX 5 14 0 0
BITMAP
D8
48
00
30
30
30
30
30
30
30
30
30
30
30
ENDCHAR
STARTCHAR Ocircumflex
ENCODING 212
SWIDTH 800 0
DWIDTH 12 0
BBX 10 14 2 0
BITMAP
1C00
3600
0000
1E00
7F80
6180
C0C0
C0C0
C0C0
C0C0
C0C0
6180
7F80
1E00
ENDCHAR
STARTCHAR Ugrave
ENCODING 217
SWIDTH 666 0
DWIDTH 10 0
BBX 8 14 2 0
BITMAP
30
18
00
C3
C3
C3
C3
C3
C3
C3
C3
C3
7E
3C
ENDCHAR
STARTCHAR Ucircumflex
ENCODING 219
SWIDTH 666 0
DWIDTH 10 0
BBX 8 14 2 0
BITMAP
1C
36
00
C3
C3
C3
C3
C3
C3
C3
C3
C3
7E
3C
ENDCHAR
STARTCHAR Udieresis
ENCODING 220
SWIDTH 666 0
DWIDTH 10 0
BBX 8 14 2 0
BITMAP
66
66
00
C3
C3
C3
C3
C3
C3
C3
C3
C3
7E
3C
ENDCHAR
STARTCHAR agrave
ENCODING 224
SWIDTH 533 0
DWIDTH 8 0
BBX 7 11 1 0
BITMAP
60
30
00
7C
66
0E
7E
E6
C6
FE
76
ENDCHAR
STARTCHAR acircumflex
ENCODING 226
SWIDTH 533 0
DWIDTH 8 0
BBX 7 11 1 0
BITMAP
38
6C
00
7C
66
0E
7E
E6
C6
FE
76
ENDCHAR
STARTCHAR ccedilla
ENCODING 231
SWIDTH 533 0
DWIDTH 8 0
BBX 6 10 2 -2
BITMAP
38
7C
C0
C0
C0
C0
FC
38
18
30
ENDCHAR
STARTCHAR egrave
ENCODING 232
SWIDTH 600 0
DWIDTH 9 0
BBX 7 11 2 0
BITMAP
30
18
00
3C
7E
C6
DE
F8
E0
7E
3C
ENDCHAR
STARTCHAR eacute
ENCODING 233
SWIDTH 600 0
DWIDTH 9 0
BBX 7 11 2 0
BITMAP
0C
18
00
3C
7E
C6
DE
F8
E0
7E
3C
ENDCHAR
STARTCHAR ecircumflex
ENCODING 234
SWIDTH 600 0
DWIDTH 9 0
BBX 7 11 2 0
BITMAP
38
6C
00
3C
7E
C6
DE
F8
E0
7E
3C
ENDCHAR
STARTCHAR edieresis
ENCODING 235
SWIDTH 600 0
DWIDTH 9 0
BBX 7 11 2 0
BITMAP
6C
24
00
3C
7E
C6
DE
F8
E0
7E
3C
ENDCHAR
STARTCHAR icircumflex
ENCODING 238
SWIDTH 400 0
DWIDTH 6 0
BBX 5 11 2 0
BITMAP
70
D8
00
20
60
60
60
60
60
60
60
ENDCHAR
STARTCHAR idieresis
ENCODING 239
SWIDTH 400 0
DWIDTH 6 0
BBX 5 11 1 0
BITMAP
D8
48
00
10
30
30
30
30
30
30
30
ENDCHAR
STARTCHAR ocircumflex
ENCODING 244
SWIDTH 600 0
DWIDTH 9 0
BBX 7 11 2 0
BITMAP
38
6C
00
38
7C
C6
C6
C6
C6
7C
38
ENDCHAR
STARTCHAR ugrave
ENCODING 249
SWIDTH 600 0
DWIDTH 9 0
BBX 7 11 2 0
BITMAP
60
30
00
C6
C6
C6
C6
C6
C6
FE
76
ENDCHAR
STARTCHAR ucircumflex
ENCODING 251
SWIDTH 600 0
DWIDTH 9 0
BBX 7 11 2 0
BITMAP
38
6C
00
C6
C6
C6
C6
C6
C6
FE
76
ENDCHAR
STARTCHAR udieresis
ENCODING 252
SWIDTH 600 0
DWIDTH 9 0
BBX 7 11 2 0
BITMAP
6C
24
00
C6
C6
C6
C6
C6
C6
FE
76
ENDCHAR
ENDFONT
